%TF.GenerationSoftware,KiCad,Pcbnew,9.0.2*%
%TF.CreationDate,2026-04-07T20:03:56+07:00*%
%TF.ProjectId,highLevelController,68696768-4c65-4766-956c-436f6e74726f,rev?*%
%TF.SameCoordinates,Original*%
%TF.FileFunction,Soldermask,Top*%
%TF.FilePolarity,Negative*%
%FSLAX46Y46*%
G04 Gerber Fmt 4.6, Leading zero omitted, Abs format (unit mm)*
G04 Created by KiCad (PCBNEW 9.0.2) date 2026-04-07 20:03:56*
%MOMM*%
%LPD*%
G01*
G04 APERTURE LIST*
G04 Aperture macros list*
%AMRoundRect*
0 Rectangle with rounded corners*
0 $1 Rounding radius*
0 $2 $3 $4 $5 $6 $7 $8 $9 X,Y pos of 4 corners*
0 Add a 4 corners polygon primitive as box body*
4,1,4,$2,$3,$4,$5,$6,$7,$8,$9,$2,$3,0*
0 Add four circle primitives for the rounded corners*
1,1,$1+$1,$2,$3*
1,1,$1+$1,$4,$5*
1,1,$1+$1,$6,$7*
1,1,$1+$1,$8,$9*
0 Add four rect primitives between the rounded corners*
20,1,$1+$1,$2,$3,$4,$5,0*
20,1,$1+$1,$4,$5,$6,$7,0*
20,1,$1+$1,$6,$7,$8,$9,0*
20,1,$1+$1,$8,$9,$2,$3,0*%
%AMFreePoly0*
4,1,6,1.000000,0.000000,0.500000,-0.750000,-0.500000,-0.750000,-0.500000,0.750000,0.500000,0.750000,1.000000,0.000000,1.000000,0.000000,$1*%
%AMFreePoly1*
4,1,6,0.500000,-0.750000,-0.650000,-0.750000,-0.150000,0.000000,-0.650000,0.750000,0.500000,0.750000,0.500000,-0.750000,0.500000,-0.750000,$1*%
G04 Aperture macros list end*
%ADD10C,5.600000*%
%ADD11RoundRect,0.250000X0.600000X0.725000X-0.600000X0.725000X-0.600000X-0.725000X0.600000X-0.725000X0*%
%ADD12O,1.700000X1.950000*%
%ADD13RoundRect,0.200000X0.200000X0.275000X-0.200000X0.275000X-0.200000X-0.275000X0.200000X-0.275000X0*%
%ADD14RoundRect,0.150000X0.587500X0.150000X-0.587500X0.150000X-0.587500X-0.150000X0.587500X-0.150000X0*%
%ADD15RoundRect,0.150000X-0.150000X0.587500X-0.150000X-0.587500X0.150000X-0.587500X0.150000X0.587500X0*%
%ADD16RoundRect,0.250000X-0.725000X0.600000X-0.725000X-0.600000X0.725000X-0.600000X0.725000X0.600000X0*%
%ADD17O,1.950000X1.700000*%
%ADD18RoundRect,0.250000X0.375000X0.625000X-0.375000X0.625000X-0.375000X-0.625000X0.375000X-0.625000X0*%
%ADD19RoundRect,0.225000X0.225000X0.250000X-0.225000X0.250000X-0.225000X-0.250000X0.225000X-0.250000X0*%
%ADD20R,1.200000X0.700000*%
%ADD21FreePoly0,180.000000*%
%ADD22FreePoly1,180.000000*%
%ADD23RoundRect,0.250000X0.725000X-0.600000X0.725000X0.600000X-0.725000X0.600000X-0.725000X-0.600000X0*%
%ADD24FreePoly0,0.000000*%
%ADD25RoundRect,0.225000X-0.225000X-0.250000X0.225000X-0.250000X0.225000X0.250000X-0.225000X0.250000X0*%
%ADD26RoundRect,0.225000X0.250000X-0.225000X0.250000X0.225000X-0.250000X0.225000X-0.250000X-0.225000X0*%
%ADD27R,1.700000X1.700000*%
%ADD28C,1.700000*%
%ADD29RoundRect,0.200000X0.275000X-0.200000X0.275000X0.200000X-0.275000X0.200000X-0.275000X-0.200000X0*%
%ADD30RoundRect,0.250000X-0.600000X-0.725000X0.600000X-0.725000X0.600000X0.725000X-0.600000X0.725000X0*%
%ADD31RoundRect,0.200000X-0.275000X0.200000X-0.275000X-0.200000X0.275000X-0.200000X0.275000X0.200000X0*%
%ADD32RoundRect,0.150000X0.512500X0.150000X-0.512500X0.150000X-0.512500X-0.150000X0.512500X-0.150000X0*%
%ADD33RoundRect,0.200000X-0.200000X-0.275000X0.200000X-0.275000X0.200000X0.275000X-0.200000X0.275000X0*%
%ADD34FreePoly1,0.000000*%
%ADD35RoundRect,0.150000X-0.150000X0.825000X-0.150000X-0.825000X0.150000X-0.825000X0.150000X0.825000X0*%
%ADD36RoundRect,0.150000X0.150000X-0.825000X0.150000X0.825000X-0.150000X0.825000X-0.150000X-0.825000X0*%
%ADD37RoundRect,0.150000X0.150000X-0.587500X0.150000X0.587500X-0.150000X0.587500X-0.150000X-0.587500X0*%
%ADD38RoundRect,0.225000X-0.250000X0.225000X-0.250000X-0.225000X0.250000X-0.225000X0.250000X0.225000X0*%
G04 APERTURE END LIST*
%TO.C,JP3*%
G36*
X186870000Y-67750000D02*
G01*
X184420000Y-67750000D01*
X184420000Y-66250000D01*
X186870000Y-66250000D01*
X186870000Y-67750000D01*
G37*
%TO.C,JP4*%
G36*
X215000000Y-129750000D02*
G01*
X210000000Y-129750000D01*
X210000000Y-128250000D01*
X215000000Y-128250000D01*
X215000000Y-129750000D01*
G37*
%TO.C,JP1*%
G36*
X164050000Y-80250000D02*
G01*
X166500000Y-80250000D01*
X166500000Y-81750000D01*
X164050000Y-81750000D01*
X164050000Y-80250000D01*
G37*
%TO.C,JP5*%
G36*
X214500000Y-117250000D02*
G01*
X209500000Y-117250000D01*
X209500000Y-115750000D01*
X214500000Y-115750000D01*
X214500000Y-117250000D01*
G37*
%TO.C,JP2*%
G36*
X185420000Y-123295000D02*
G01*
X182970000Y-123295000D01*
X182970000Y-121795000D01*
X185420000Y-121795000D01*
X185420000Y-123295000D01*
G37*
%TD*%
D10*
%TO.C,H4*%
X130340559Y-66800000D03*
%TD*%
%TO.C,H3*%
X236159441Y-66840559D03*
%TD*%
%TO.C,H2*%
X236159441Y-135400000D03*
%TD*%
%TO.C,H1*%
X130340559Y-135359441D03*
%TD*%
D11*
%TO.C,J5*%
X179000000Y-73600000D03*
D12*
X176500000Y-73600000D03*
X174000000Y-73600000D03*
X171500000Y-73600000D03*
%TD*%
D13*
%TO.C,R2*%
X204500000Y-82500000D03*
X202850000Y-82500000D03*
%TD*%
%TO.C,R5*%
X208585285Y-111500000D03*
X206935285Y-111500000D03*
%TD*%
D14*
%TO.C,D1*%
X186336614Y-71450000D03*
X186336614Y-69550000D03*
X184461614Y-70500000D03*
%TD*%
D15*
%TO.C,Q1*%
X208710285Y-113250000D03*
X206810285Y-113250000D03*
X207760285Y-115125000D03*
%TD*%
D16*
%TO.C,J8*%
X155000000Y-78500000D03*
D17*
X155000000Y-81000000D03*
X155000000Y-83500000D03*
X155000000Y-86000000D03*
%TD*%
D18*
%TO.C,F1*%
X165000000Y-122750000D03*
X162200000Y-122750000D03*
%TD*%
%TO.C,F2*%
X165000000Y-132700000D03*
X162200000Y-132700000D03*
%TD*%
D19*
%TO.C,C8*%
X193450000Y-73000000D03*
X191900000Y-73000000D03*
%TD*%
D20*
%TO.C,FL1*%
X191750000Y-124750000D03*
X187050000Y-124750000D03*
X187050000Y-126550000D03*
X191750000Y-126550000D03*
%TD*%
D19*
%TO.C,C11*%
X213507622Y-121732622D03*
X211957622Y-121732622D03*
%TD*%
D21*
%TO.C,JP3*%
X186370000Y-67000000D03*
D22*
X184920000Y-67000000D03*
%TD*%
D23*
%TO.C,J1*%
X210650000Y-86250000D03*
D17*
X210650000Y-83750000D03*
X210650000Y-81250000D03*
X210650000Y-78750000D03*
X210650000Y-76250000D03*
X210650000Y-73750000D03*
%TD*%
D13*
%TO.C,R1*%
X204500000Y-84500000D03*
X202850000Y-84500000D03*
%TD*%
D21*
%TO.C,JP4*%
X214500000Y-129000000D03*
D24*
X210500000Y-129000000D03*
%TD*%
D25*
%TO.C,C4*%
X164452021Y-83000000D03*
X166002021Y-83000000D03*
%TD*%
D26*
%TO.C,C37*%
X194655000Y-126445000D03*
X194655000Y-124895000D03*
%TD*%
D19*
%TO.C,C10*%
X213532500Y-123270050D03*
X211982500Y-123270050D03*
%TD*%
D14*
%TO.C,D19*%
X184957500Y-126590000D03*
X184957500Y-124690000D03*
X183082500Y-125640000D03*
%TD*%
D19*
%TO.C,C39*%
X191750000Y-123020000D03*
X190200000Y-123020000D03*
%TD*%
%TO.C,C3*%
X166251157Y-114015128D03*
X164701157Y-114015128D03*
%TD*%
%TO.C,C7*%
X198775000Y-77485000D03*
X197225000Y-77485000D03*
%TD*%
D16*
%TO.C,J4*%
X155000000Y-122700000D03*
D17*
X155000000Y-125200000D03*
X155000000Y-127700000D03*
X155000000Y-130200000D03*
X155000000Y-132700000D03*
X155000000Y-135200000D03*
%TD*%
D27*
%TO.C,J2*%
X163496372Y-91127444D03*
D28*
X163496372Y-93667444D03*
X163496372Y-96207444D03*
X163496372Y-98747444D03*
X163496372Y-101287444D03*
X163496372Y-103827444D03*
%TD*%
D19*
%TO.C,C9*%
X193450000Y-68000000D03*
X191900000Y-68000000D03*
%TD*%
D20*
%TO.C,FL2*%
X193450000Y-69610000D03*
X188750000Y-69610000D03*
X188750000Y-71410000D03*
X193450000Y-71410000D03*
%TD*%
D29*
%TO.C,R7*%
X207760285Y-118500000D03*
X207760285Y-116850000D03*
%TD*%
D28*
%TO.C,U1*%
X168756180Y-80970000D03*
X171296180Y-83510000D03*
X168756180Y-83510000D03*
X171296180Y-86050000D03*
X168756180Y-86050000D03*
X171296180Y-88590000D03*
X168756180Y-88590000D03*
X171296180Y-91130000D03*
D27*
X171296180Y-80970000D03*
X199283820Y-80977624D03*
D28*
X168756180Y-111450000D03*
X168756180Y-91130000D03*
X171296180Y-93670000D03*
X168756180Y-93670000D03*
X171296180Y-96210000D03*
X171296180Y-111450000D03*
X171296180Y-113990000D03*
X171296180Y-116530000D03*
X196743820Y-116537624D03*
X199283820Y-116537624D03*
X196743820Y-113997624D03*
X168756180Y-96210000D03*
X171296180Y-98750000D03*
X168756180Y-98750000D03*
X171296180Y-101290000D03*
X168756180Y-101290000D03*
X171296180Y-103830000D03*
X168756180Y-103830000D03*
X171296180Y-106370000D03*
X168756180Y-106370000D03*
X171296180Y-108910000D03*
X168756180Y-108910000D03*
X199283820Y-113997624D03*
X196743820Y-111457624D03*
X199283820Y-111457624D03*
X196743820Y-108917624D03*
X199283820Y-108917624D03*
X196743820Y-106377624D03*
X199283820Y-106377624D03*
X196743820Y-103837624D03*
X199283820Y-103837624D03*
X196743820Y-101297624D03*
X199283820Y-101297624D03*
X196743820Y-98757624D03*
X199283820Y-98757624D03*
X196743820Y-96217624D03*
X168756180Y-113990000D03*
X199283820Y-96217624D03*
X196743820Y-93677624D03*
X199283820Y-93677624D03*
X196743820Y-91137624D03*
X199283820Y-91137624D03*
X196743820Y-88597624D03*
X199283820Y-88597624D03*
X196743820Y-86057624D03*
X199283820Y-86057624D03*
X199283820Y-83517624D03*
X196743820Y-80977624D03*
X168756180Y-116530000D03*
%TD*%
D30*
%TO.C,J6*%
X170250000Y-127250000D03*
D12*
X172750000Y-127250000D03*
X175250000Y-127250000D03*
X177750000Y-127250000D03*
%TD*%
D31*
%TO.C,R8*%
X207767785Y-120175000D03*
X207767785Y-121825000D03*
%TD*%
D19*
%TO.C,C13*%
X213276880Y-109253025D03*
X211726880Y-109253025D03*
%TD*%
D32*
%TO.C,U3*%
X213514878Y-126732378D03*
X213514878Y-125782378D03*
X213514878Y-124832378D03*
X211239878Y-124832378D03*
X211239878Y-125782378D03*
X211239878Y-126732378D03*
%TD*%
D27*
%TO.C,J3*%
X204775000Y-91130000D03*
D28*
X204775000Y-93670000D03*
X204775000Y-96210000D03*
X204775000Y-98750000D03*
X204775000Y-101290000D03*
X204775000Y-103830000D03*
X204775000Y-106370000D03*
%TD*%
D33*
%TO.C,R6*%
X206937979Y-127368412D03*
X208587979Y-127368412D03*
%TD*%
D24*
%TO.C,JP1*%
X164550000Y-81000000D03*
D34*
X166000000Y-81000000D03*
%TD*%
D25*
%TO.C,C36*%
X197522587Y-119482446D03*
X199072587Y-119482446D03*
%TD*%
D19*
%TO.C,C2*%
X166250341Y-111454206D03*
X164700341Y-111454206D03*
%TD*%
%TO.C,C1*%
X166250000Y-116500000D03*
X164700000Y-116500000D03*
%TD*%
D21*
%TO.C,JP5*%
X214000000Y-116500000D03*
D24*
X210000000Y-116500000D03*
%TD*%
D23*
%TO.C,J9*%
X220717785Y-125750000D03*
D17*
X220717785Y-123250000D03*
X220717785Y-120750000D03*
X220717785Y-118250000D03*
X220717785Y-115750000D03*
X220717785Y-113250000D03*
%TD*%
D35*
%TO.C,U8*%
X200133040Y-121503040D03*
X198863040Y-121503040D03*
X197593040Y-121503040D03*
X196323040Y-121503040D03*
X196323040Y-126453040D03*
X197593040Y-126453040D03*
X198863040Y-126453040D03*
X200133040Y-126453040D03*
%TD*%
D36*
%TO.C,U2*%
X196095000Y-75460000D03*
X197365000Y-75460000D03*
X198635000Y-75460000D03*
X199905000Y-75460000D03*
X199905000Y-70510000D03*
X198635000Y-70510000D03*
X197365000Y-70510000D03*
X196095000Y-70510000D03*
%TD*%
D21*
%TO.C,JP2*%
X184920000Y-122545000D03*
D22*
X183470000Y-122545000D03*
%TD*%
D29*
%TO.C,R9*%
X215500000Y-126825000D03*
X215500000Y-125175000D03*
%TD*%
%TO.C,R4*%
X183000000Y-68650000D03*
X183000000Y-67000000D03*
%TD*%
D37*
%TO.C,Q2*%
X206817785Y-125627500D03*
X208717785Y-125627500D03*
X207767785Y-123752500D03*
%TD*%
D19*
%TO.C,C38*%
X191770000Y-128500000D03*
X190220000Y-128500000D03*
%TD*%
D29*
%TO.C,R3*%
X181750000Y-123715000D03*
X181750000Y-122065000D03*
%TD*%
D25*
%TO.C,C5*%
X168750000Y-119000000D03*
X170300000Y-119000000D03*
%TD*%
D19*
%TO.C,C12*%
X213282500Y-110923592D03*
X211732500Y-110923592D03*
%TD*%
D16*
%TO.C,J7*%
X155000000Y-109000000D03*
D17*
X155000000Y-111500000D03*
X155000000Y-114000000D03*
X155000000Y-116500000D03*
%TD*%
D29*
%TO.C,R10*%
X215500000Y-114500000D03*
X215500000Y-112850000D03*
%TD*%
D38*
%TO.C,C6*%
X201493948Y-70511799D03*
X201493948Y-72061799D03*
%TD*%
D32*
%TO.C,U4*%
X213384218Y-114402912D03*
X213384218Y-113452912D03*
X213384218Y-112502912D03*
X211109218Y-112502912D03*
X211109218Y-113452912D03*
X211109218Y-114402912D03*
%TD*%
M02*
