M48
; DRILL file {KiCad 9.0.2} date 2026-04-07T20:04:10+0700
; FORMAT={-:-/ absolute / metric / decimal}
; #@! TF.CreationDate,2026-04-07T20:04:10+07:00
; #@! TF.GenerationSoftware,Kicad,Pcbnew,9.0.2
; #@! TF.FileFunction,Plated,1,2,PTH
FMAT,2
METRIC
; #@! TA.AperFunction,Plated,PTH,ViaDrill
T1C0.300
; #@! TA.AperFunction,Plated,PTH,ViaDrill
T2C0.400
; #@! TA.AperFunction,Plated,PTH,ViaDrill
T3C0.600
; #@! TA.AperFunction,Plated,PTH,ComponentDrill
T4C0.950
; #@! TA.AperFunction,Plated,PTH,ComponentDrill
T5C1.000
; #@! TA.AperFunction,Plated,PTH,ComponentDrill
T6C3.200
%
G90
G05
T1
X174.41Y-108.91
X183.0Y-68.67
X184.92Y-122.545
X186.407Y-71.45
X189.0Y-123.0
X201.0Y-115.0
X201.4Y-83.3
X201.5Y-74.0
X202.85Y-82.5
X202.868Y-78.75
X203.5Y-116.5
X204.783Y-126.227
X206.253Y-122.04
X206.81Y-113.25
X207.768Y-123.752
X208.0Y-77.0
X208.0Y-80.0
X208.0Y-83.5
X209.97Y-119.53
X210.5Y-121.5
X213.275Y-112.58
X214.0Y-116.5
X215.5Y-125.175
T2
X165.0Y-122.75
X166.002Y-83.0
X174.0Y-125.0
X176.75Y-125.0
X183.082Y-125.64
X190.2Y-123.02
X194.655Y-124.895
X194.75Y-87.5
X196.095Y-70.51
X202.75Y-87.5
X202.75Y-92.5
X213.532Y-124.85
T3
X165.0Y-132.7
X196.345Y-126.475
X197.615Y-121.525
X198.775Y-77.485
X205.0Y-117.5
X213.282Y-109.25
X214.5Y-129.0
T4
X155.0Y-78.5
X155.0Y-81.0
X155.0Y-83.5
X155.0Y-86.0
X155.0Y-109.0
X155.0Y-111.5
X155.0Y-114.0
X155.0Y-116.5
X155.0Y-122.7
X155.0Y-125.2
X155.0Y-127.7
X155.0Y-130.2
X155.0Y-132.7
X155.0Y-135.2
X170.25Y-127.25
X171.5Y-73.6
X172.75Y-127.25
X174.0Y-73.6
X175.25Y-127.25
X176.5Y-73.6
X177.75Y-127.25
X179.0Y-73.6
X210.65Y-73.75
X210.65Y-76.25
X210.65Y-78.75
X210.65Y-81.25
X210.65Y-83.75
X210.65Y-86.25
X220.718Y-113.25
X220.718Y-115.75
X220.718Y-118.25
X220.718Y-120.75
X220.718Y-123.25
X220.718Y-125.75
T5
X163.496Y-91.127
X163.496Y-93.667
X163.496Y-96.207
X163.496Y-98.747
X163.496Y-101.287
X163.496Y-103.827
X168.756Y-80.97
X168.756Y-83.51
X168.756Y-86.05
X168.756Y-88.59
X168.756Y-91.13
X168.756Y-93.67
X168.756Y-96.21
X168.756Y-98.75
X168.756Y-101.29
X168.756Y-103.83
X168.756Y-106.37
X168.756Y-108.91
X168.756Y-111.45
X168.756Y-113.99
X168.756Y-116.53
X171.296Y-80.97
X171.296Y-83.51
X171.296Y-86.05
X171.296Y-88.59
X171.296Y-91.13
X171.296Y-93.67
X171.296Y-96.21
X171.296Y-98.75
X171.296Y-101.29
X171.296Y-103.83
X171.296Y-106.37
X171.296Y-108.91
X171.296Y-111.45
X171.296Y-113.99
X171.296Y-116.53
X196.744Y-80.978
X196.744Y-83.518
X196.744Y-86.058
X196.744Y-88.598
X196.744Y-91.138
X196.744Y-93.678
X196.744Y-96.218
X196.744Y-98.758
X196.744Y-101.298
X196.744Y-103.838
X196.744Y-106.378
X196.744Y-108.918
X196.744Y-111.458
X196.744Y-113.998
X196.744Y-116.538
X199.284Y-80.978
X199.284Y-83.518
X199.284Y-86.058
X199.284Y-88.598
X199.284Y-91.138
X199.284Y-93.678
X199.284Y-96.218
X199.284Y-98.758
X199.284Y-101.298
X199.284Y-103.838
X199.284Y-106.378
X199.284Y-108.918
X199.284Y-111.458
X199.284Y-113.998
X199.284Y-116.538
X204.775Y-91.13
X204.775Y-93.67
X204.775Y-96.21
X204.775Y-98.75
X204.775Y-101.29
X204.775Y-103.83
X204.775Y-106.37
T6
X130.341Y-66.8
X130.341Y-135.359
X236.159Y-66.841
X236.159Y-135.4
M30
