%TF.GenerationSoftware,KiCad,Pcbnew,9.0.2*%
%TF.CreationDate,2026-04-07T20:03:56+07:00*%
%TF.ProjectId,highLevelController,68696768-4c65-4766-956c-436f6e74726f,rev?*%
%TF.SameCoordinates,Original*%
%TF.FileFunction,Paste,Top*%
%TF.FilePolarity,Positive*%
%FSLAX46Y46*%
G04 Gerber Fmt 4.6, Leading zero omitted, Abs format (unit mm)*
G04 Created by KiCad (PCBNEW 9.0.2) date 2026-04-07 20:03:56*
%MOMM*%
%LPD*%
G01*
G04 APERTURE LIST*
G04 Aperture macros list*
%AMRoundRect*
0 Rectangle with rounded corners*
0 $1 Rounding radius*
0 $2 $3 $4 $5 $6 $7 $8 $9 X,Y pos of 4 corners*
0 Add a 4 corners polygon primitive as box body*
4,1,4,$2,$3,$4,$5,$6,$7,$8,$9,$2,$3,0*
0 Add four circle primitives for the rounded corners*
1,1,$1+$1,$2,$3*
1,1,$1+$1,$4,$5*
1,1,$1+$1,$6,$7*
1,1,$1+$1,$8,$9*
0 Add four rect primitives between the rounded corners*
20,1,$1+$1,$2,$3,$4,$5,0*
20,1,$1+$1,$4,$5,$6,$7,0*
20,1,$1+$1,$6,$7,$8,$9,0*
20,1,$1+$1,$8,$9,$2,$3,0*%
G04 Aperture macros list end*
%ADD10RoundRect,0.200000X0.200000X0.275000X-0.200000X0.275000X-0.200000X-0.275000X0.200000X-0.275000X0*%
%ADD11RoundRect,0.150000X0.587500X0.150000X-0.587500X0.150000X-0.587500X-0.150000X0.587500X-0.150000X0*%
%ADD12RoundRect,0.150000X-0.150000X0.587500X-0.150000X-0.587500X0.150000X-0.587500X0.150000X0.587500X0*%
%ADD13RoundRect,0.250000X0.375000X0.625000X-0.375000X0.625000X-0.375000X-0.625000X0.375000X-0.625000X0*%
%ADD14RoundRect,0.225000X0.225000X0.250000X-0.225000X0.250000X-0.225000X-0.250000X0.225000X-0.250000X0*%
%ADD15R,1.200000X0.700000*%
%ADD16RoundRect,0.225000X-0.225000X-0.250000X0.225000X-0.250000X0.225000X0.250000X-0.225000X0.250000X0*%
%ADD17RoundRect,0.225000X0.250000X-0.225000X0.250000X0.225000X-0.250000X0.225000X-0.250000X-0.225000X0*%
%ADD18RoundRect,0.200000X0.275000X-0.200000X0.275000X0.200000X-0.275000X0.200000X-0.275000X-0.200000X0*%
%ADD19RoundRect,0.200000X-0.275000X0.200000X-0.275000X-0.200000X0.275000X-0.200000X0.275000X0.200000X0*%
%ADD20RoundRect,0.150000X0.512500X0.150000X-0.512500X0.150000X-0.512500X-0.150000X0.512500X-0.150000X0*%
%ADD21RoundRect,0.200000X-0.200000X-0.275000X0.200000X-0.275000X0.200000X0.275000X-0.200000X0.275000X0*%
%ADD22RoundRect,0.150000X-0.150000X0.825000X-0.150000X-0.825000X0.150000X-0.825000X0.150000X0.825000X0*%
%ADD23RoundRect,0.150000X0.150000X-0.825000X0.150000X0.825000X-0.150000X0.825000X-0.150000X-0.825000X0*%
%ADD24RoundRect,0.150000X0.150000X-0.587500X0.150000X0.587500X-0.150000X0.587500X-0.150000X-0.587500X0*%
%ADD25RoundRect,0.225000X-0.250000X0.225000X-0.250000X-0.225000X0.250000X-0.225000X0.250000X0.225000X0*%
G04 APERTURE END LIST*
D10*
%TO.C,R2*%
X204500000Y-82500000D03*
X202850000Y-82500000D03*
%TD*%
%TO.C,R5*%
X208585285Y-111500000D03*
X206935285Y-111500000D03*
%TD*%
D11*
%TO.C,D1*%
X186336614Y-71450000D03*
X186336614Y-69550000D03*
X184461614Y-70500000D03*
%TD*%
D12*
%TO.C,Q1*%
X208710285Y-113250000D03*
X206810285Y-113250000D03*
X207760285Y-115125000D03*
%TD*%
D13*
%TO.C,F1*%
X165000000Y-122750000D03*
X162200000Y-122750000D03*
%TD*%
%TO.C,F2*%
X165000000Y-132700000D03*
X162200000Y-132700000D03*
%TD*%
D14*
%TO.C,C8*%
X193450000Y-73000000D03*
X191900000Y-73000000D03*
%TD*%
D15*
%TO.C,FL1*%
X191750000Y-124750000D03*
X187050000Y-124750000D03*
X187050000Y-126550000D03*
X191750000Y-126550000D03*
%TD*%
D14*
%TO.C,C11*%
X213507622Y-121732622D03*
X211957622Y-121732622D03*
%TD*%
D10*
%TO.C,R1*%
X204500000Y-84500000D03*
X202850000Y-84500000D03*
%TD*%
D16*
%TO.C,C4*%
X164452021Y-83000000D03*
X166002021Y-83000000D03*
%TD*%
D17*
%TO.C,C37*%
X194655000Y-126445000D03*
X194655000Y-124895000D03*
%TD*%
D14*
%TO.C,C10*%
X213532500Y-123270050D03*
X211982500Y-123270050D03*
%TD*%
D11*
%TO.C,D19*%
X184957500Y-126590000D03*
X184957500Y-124690000D03*
X183082500Y-125640000D03*
%TD*%
D14*
%TO.C,C39*%
X191750000Y-123020000D03*
X190200000Y-123020000D03*
%TD*%
%TO.C,C3*%
X166251157Y-114015128D03*
X164701157Y-114015128D03*
%TD*%
%TO.C,C7*%
X198775000Y-77485000D03*
X197225000Y-77485000D03*
%TD*%
%TO.C,C9*%
X193450000Y-68000000D03*
X191900000Y-68000000D03*
%TD*%
D15*
%TO.C,FL2*%
X193450000Y-69610000D03*
X188750000Y-69610000D03*
X188750000Y-71410000D03*
X193450000Y-71410000D03*
%TD*%
D18*
%TO.C,R7*%
X207760285Y-118500000D03*
X207760285Y-116850000D03*
%TD*%
D19*
%TO.C,R8*%
X207767785Y-120175000D03*
X207767785Y-121825000D03*
%TD*%
D14*
%TO.C,C13*%
X213276880Y-109253025D03*
X211726880Y-109253025D03*
%TD*%
D20*
%TO.C,U3*%
X213514878Y-126732378D03*
X213514878Y-125782378D03*
X213514878Y-124832378D03*
X211239878Y-124832378D03*
X211239878Y-125782378D03*
X211239878Y-126732378D03*
%TD*%
D21*
%TO.C,R6*%
X206937979Y-127368412D03*
X208587979Y-127368412D03*
%TD*%
D16*
%TO.C,C36*%
X197522587Y-119482446D03*
X199072587Y-119482446D03*
%TD*%
D14*
%TO.C,C2*%
X166250341Y-111454206D03*
X164700341Y-111454206D03*
%TD*%
%TO.C,C1*%
X166250000Y-116500000D03*
X164700000Y-116500000D03*
%TD*%
D22*
%TO.C,U8*%
X200133040Y-121503040D03*
X198863040Y-121503040D03*
X197593040Y-121503040D03*
X196323040Y-121503040D03*
X196323040Y-126453040D03*
X197593040Y-126453040D03*
X198863040Y-126453040D03*
X200133040Y-126453040D03*
%TD*%
D23*
%TO.C,U2*%
X196095000Y-75460000D03*
X197365000Y-75460000D03*
X198635000Y-75460000D03*
X199905000Y-75460000D03*
X199905000Y-70510000D03*
X198635000Y-70510000D03*
X197365000Y-70510000D03*
X196095000Y-70510000D03*
%TD*%
D18*
%TO.C,R9*%
X215500000Y-126825000D03*
X215500000Y-125175000D03*
%TD*%
%TO.C,R4*%
X183000000Y-68650000D03*
X183000000Y-67000000D03*
%TD*%
D24*
%TO.C,Q2*%
X206817785Y-125627500D03*
X208717785Y-125627500D03*
X207767785Y-123752500D03*
%TD*%
D14*
%TO.C,C38*%
X191770000Y-128500000D03*
X190220000Y-128500000D03*
%TD*%
D18*
%TO.C,R3*%
X181750000Y-123715000D03*
X181750000Y-122065000D03*
%TD*%
D16*
%TO.C,C5*%
X168750000Y-119000000D03*
X170300000Y-119000000D03*
%TD*%
D14*
%TO.C,C12*%
X213282500Y-110923592D03*
X211732500Y-110923592D03*
%TD*%
D18*
%TO.C,R10*%
X215500000Y-114500000D03*
X215500000Y-112850000D03*
%TD*%
D25*
%TO.C,C6*%
X201493948Y-70511799D03*
X201493948Y-72061799D03*
%TD*%
D20*
%TO.C,U4*%
X213384218Y-114402912D03*
X213384218Y-113452912D03*
X213384218Y-112502912D03*
X211109218Y-112502912D03*
X211109218Y-113452912D03*
X211109218Y-114402912D03*
%TD*%
M02*
